<?xml version="1.0" encoding="UTF-8"?>
<svg id="Layer_2" data-name="Layer 2" xmlns="http://www.w3.org/2000/svg" viewBox="0 0 487.2 628.28">
  <defs>
    <style>
      .cls-1, .cls-2, .cls-3 {
        stroke-width: 0px;
      }

      .cls-2 {
        fill: #9e9e9e;
      }

      .cls-3 {
        fill: #fe0000;
      }
    </style>
  </defs>
  <g id="Layer_1-2" data-name="Layer 1">
    <g>
      <path class="cls-3" d="M0,329.37c3.59-4.76,8.75-7.25,14-9.5,24.27-10.4,43.1-27.76,60.51-46.98,9.18-9.11,16.18-19.83,22.72-30.89,2.93-4.96,5.76-9.98,8.74-14.91,1.47-2.43,3.01-4.88,5.76-6.54,4.79,3.84,5.29,9.54,5.82,14.78,3.23,32.28-.52,63.56-14.35,93.24-2.87,6.17-6.66,11.79-11.22,16.86-14.64,16.26-33.01,18.6-53.08,13.93-10.76-2.5-20.72-6.96-29.56-13.72-3.93-3.01-7-6.73-9.34-11.08v-5.2Z"/>
      <path class="cls-2" d="M233.14,0c-.05.26-.03.52.06.77-1.96,1.71-3.99,1.61-6.05.19-.03-.32-.05-.64-.08-.95,2.02,0,4.04,0,6.07,0Z"/>
      <path class="cls-1" d="M487.2,361.35c-.04,2.16-.11,4.33-.11,6.49-.04,86.81-.07,173.62-.1,260.43-11.89-11.76-23.82-23.47-35.65-35.29-64.85-64.83-129.66-129.69-194.52-194.51-9.9-9.89-20.01-19.58-29.78-29.13v-4.17c0-46.79-.01-93.59.05-140.38,0-1.39-1.27-3.7,1.72-3.93,20.3.05,40.59.12,60.89.14,19.29.01,38.58-.03,57.87-.06,7.37,8.5,15.64,16.11,23.57,24.05,38.29,38.38,76.65,76.67,114.99,115.01.4.4.71.88,1.06,1.33Z"/>
      <path class="cls-1" d="M110.13,200.24c2.36-9.08,4.56-18.18,8.43-26.82,11.41-25.43,29.35-44.55,54.12-57.4,11.29-5.86,23.22-9.68,35.66-11.7,5.71-.93,11.61-1.85,17.86-.96v4.26c0,35.06,0,70.13,0,105.19,0,1.58.09,3.17.14,4.75-.09.85-.19,1.71-.31,2.81h-117c-.77-6.84.87-13.45,1.09-20.13Z"/>
      <path class="cls-1" d="M227.15.95c2.02-.06,4.03-.13,6.05-.19,31.36.67,61.15,8.08,89.29,21.72,27.5,13.33,51.18,31.74,71.1,55.01,20.05,23.41,34.51,49.82,43.41,79.29,4.52,14.97,7.38,30.25,8.61,45.87.47,5.88.88,11.71.57,17.94-1.46,0-2.73,0-4.01,0-30.02-.03-60.04-.06-90.06-.13-1.6,0-3.13.11-4.63.64.29-24.89-6.86-47.58-21.15-67.81-18.32-25.93-43.05-42.35-74.41-48.61-8.08-1.61-16.15-2.51-24.26-2.43-1.08-1.08-.57-2.3-.57-3.37,0-32.64.04-65.29.07-97.93Z"/>
    </g>
  </g>
</svg>