<svg width="1080" height="1200" viewBox="0 0 1080 1200" fill="none" xmlns="http://www.w3.org/2000/svg">
  <rect width="1080" height="1200" fill="#0A0B0A"/>
  <rect width="1080" height="1200" fill="url(#grain)" opacity="0.18"/>
  <rect x="84" y="72" width="912" height="1056" rx="8" fill="url(#panel)" stroke="#FFFFFF" stroke-opacity="0.08"/>
  <path d="M180 858C284 696 428 580 636 516C716 490 808 450 888 354" stroke="#D1FF00" stroke-opacity="0.18" stroke-width="2"/>
  <path d="M190 926C290 804 420 712 584 642C726 582 826 500 906 382" stroke="#D1FF00" stroke-opacity="0.14" stroke-width="2"/>
  <g filter="url(#glow)">
    <circle cx="432" cy="598" r="150" fill="#C9FF12" fill-opacity="0.48"/>
  </g>
  <g filter="url(#blockShadow)">
    <path d="M372 384L676 312L790 586L474 686L372 384Z" fill="url(#blockFace)"/>
    <path d="M676 312L754 226L862 498L790 586L676 312Z" fill="#2B3133"/>
    <path d="M474 686L790 586L716 706L406 804L474 686Z" fill="#141919"/>
  </g>
  <g opacity="0.2">
    <path d="M410 358L698 292" stroke="#F4F4E8" stroke-width="2"/>
    <path d="M444 458L730 388" stroke="#F4F4E8" stroke-width="2"/>
    <path d="M480 556L764 490" stroke="#F4F4E8" stroke-width="2"/>
    <path d="M514 652L800 586" stroke="#F4F4E8" stroke-width="2"/>
  </g>
  <rect x="148" y="870" width="784" height="170" fill="#0F100F" fill-opacity="0.84"/>
  <path d="M148 870H932" stroke="#232723"/>
  <path d="M694 870V1040" stroke="#D1FF00" stroke-opacity="0.85"/>
  <text x="202" y="948" fill="#F4F4E8" font-family="Inter, Arial, sans-serif" font-size="94" font-weight="800">PLACEHOLDER</text>
  <text x="204" y="1006" fill="#BFC4B8" font-family="Roboto Mono, monospace" font-size="34" letter-spacing="3">FEATURED VISUAL IN PROGRESS</text>
  <defs>
    <linearGradient id="panel" x1="154" y1="112" x2="898" y2="1080" gradientUnits="userSpaceOnUse">
      <stop stop-color="#161918"/>
      <stop offset="1" stop-color="#0A0B0A"/>
    </linearGradient>
    <linearGradient id="blockFace" x1="418" y1="322" x2="766" y2="662" gradientUnits="userSpaceOnUse">
      <stop stop-color="#424A50"/>
      <stop offset="0.55" stop-color="#1E2427"/>
      <stop offset="1" stop-color="#0E1214"/>
    </linearGradient>
    <radialGradient id="grain" cx="0" cy="0" r="1" gradientUnits="userSpaceOnUse" gradientTransform="translate(540 600) rotate(90) scale(720 648)">
      <stop stop-color="#FFFFFF" stop-opacity="0.08"/>
      <stop offset="1" stop-color="#FFFFFF" stop-opacity="0"/>
    </radialGradient>
    <filter id="glow" x="132" y="298" width="600" height="600" filterUnits="userSpaceOnUse" color-interpolation-filters="sRGB">
      <feGaussianBlur stdDeviation="75"/>
    </filter>
    <filter id="blockShadow" x="286" y="160" width="662" height="730" filterUnits="userSpaceOnUse" color-interpolation-filters="sRGB">
      <feDropShadow dx="0" dy="20" stdDeviation="24" flood-color="#000000" flood-opacity="0.42"/>
    </filter>
  </defs>
</svg>
